HIERARCHY
ROOT Hips
{
	OFFSET 0.000000 0.000000 0.000000 
	CHANNELS 6 Xposition Yposition Zposition Zrotation Yrotation Xrotation
	JOINT LeftUpLeg
	{
		OFFSET 1.363060 -1.794630 0.839290 
		CHANNELS 3 Zrotation Yrotation Xrotation
		JOINT LeftLeg
		{
			OFFSET 2.448110 -6.726130 0.000000 
			CHANNELS 3 Zrotation Yrotation Xrotation
			JOINT LeftFoot
			{
				OFFSET 2.562200 -7.039590 0.000000 
				CHANNELS 3 Zrotation Yrotation Xrotation
				JOINT LeftToeBase
				{
					OFFSET 0.157640 -0.433110 2.322550 
					CHANNELS 3 Zrotation Yrotation Xrotation
					End Site
					{
						OFFSET 0.000000 0.000000 0.000000 
					}
				}
			}
		}
	}
	JOINT RightUpLeg
	{
		OFFSET -1.305520 -1.794630 0.839290 
		CHANNELS 3 Zrotation Yrotation Xrotation
		JOINT RightLeg
		{
			OFFSET -2.542530 -6.985550 0.000000 
			CHANNELS 3 Zrotation Yrotation Xrotation
			JOINT RightFoot
			{
				OFFSET -2.568260 -7.056230 0.000000 
				CHANNELS 3 Zrotation Yrotation Xrotation
				JOINT RightToeBase
				{
					OFFSET -0.164730 -0.452590 2.363150 
					CHANNELS 3 Zrotation Yrotation Xrotation
					End Site
					{
						OFFSET 0.000000 0.000000 0.000000 
					}
				}
			}
		}
	}
	JOINT Spine
	{
		OFFSET 0.028270 2.035590 -0.193380 
		CHANNELS 3 Zrotation Yrotation Xrotation
		JOINT Spine1
		{
			OFFSET 0.056720 2.048850 -0.042750 
			CHANNELS 3 Zrotation Yrotation Xrotation
			JOINT Neck1
			{
				OFFSET -0.054170 1.746240 0.172020 
				CHANNELS 3 Zrotation Yrotation Xrotation
				JOINT Head
				{
					OFFSET 0.104070 1.761360 -0.123970 
					CHANNELS 3 Zrotation Yrotation Xrotation
					End Site
					{
						OFFSET 0.000000 0.000000 0.000000 
					}
				}
			}
			JOINT LeftArm
			{
				OFFSET 3.362410 1.200890 -0.311210 
				CHANNELS 3 Zrotation Yrotation Xrotation
				JOINT LeftForeArm
				{
					OFFSET 4.983000 -0.000000 -0.000000 
					CHANNELS 3 Zrotation Yrotation Xrotation
					JOINT LeftHand
					{
						OFFSET 3.483560 -0.000000 -0.000000 
						CHANNELS 3 Zrotation Yrotation Xrotation
						JOINT LeftHandIndex1
						{
							OFFSET 0.715260 -0.000000 -0.000000 
							CHANNELS 3 Zrotation Yrotation Xrotation
							End Site
							{
								OFFSET 0.000000 0.000000 0.000000 
							}
						}
					}
				}
			}
			JOINT RightArm
			{
				OFFSET -3.136600 1.374050 -0.404650 
				CHANNELS 3 Zrotation Yrotation Xrotation
				JOINT RightForeArm
				{
					OFFSET -5.241900 -0.000000 -0.000000 
					CHANNELS 3 Zrotation Yrotation Xrotation
					JOINT RightHand
					{
						OFFSET -3.444170 -0.000000 -0.000000 
						CHANNELS 3 Zrotation Yrotation Xrotation
						JOINT RightHandIndex1
						{
							OFFSET -0.622530 -0.000000 -0.000000 
							CHANNELS 3 Zrotation Yrotation Xrotation
							End Site
							{
								OFFSET 0.000000 0.000000 0.000000 
							}
						}
					}
				}
			}
		}
	}
}
MOTION
Frames: 18
Frame Time: 0.041667
6.163100 11.279700 10.620600 -159.475000 -21.262100 166.483000 20.432800 -3.198300 -85.776400 19.202400 19.984700 87.667300 -0.021500 -9.010700 12.440700 0.707500 5.375800 14.983700 -12.266800 12.800000 -44.847800 -13.108100 -18.820800 69.460900 0.175900 -7.446000 -3.476900 -1.013500 6.405200 -17.964800 -6.885400 1.993500 16.783800 0.396900 -2.624500 -0.016300 39.789800 -27.347400 -10.796300 11.740700 -15.635500 6.477000 9.494200 -49.463000 -19.375900 129.772500 -53.086800 -93.644100 0.000000 0.000000 -5.334300 -7.125000 0.000000 0.000000 65.916300 3.630400 -12.532900 -161.838500 28.363500 -115.374300 0.000000 0.000000 11.195400 7.125000 0.000000 0.000000 
6.153800 11.288500 10.615000 -159.051000 -21.186300 166.333000 20.397500 -2.609500 -85.950000 19.209100 19.985000 87.687100 -0.059200 -9.593400 12.601000 0.609200 4.995800 13.896400 -12.095000 14.028300 -44.582300 -13.184900 -18.847900 69.698800 0.179500 -7.497700 -2.354800 -1.739900 8.302000 -23.635100 -6.559200 1.999800 17.051600 0.902000 -2.717400 0.371500 39.613700 -27.566200 -10.055800 11.544600 -15.489900 7.092400 8.539500 -48.246800 -19.999200 129.571100 -53.167000 -93.483000 0.000000 0.000000 -5.286500 -7.125000 0.000000 0.000000 65.359800 4.114600 -12.044700 -161.852100 28.346200 -115.380700 0.000000 0.000000 11.858500 7.125000 0.000000 0.000000 
6.132000 11.297300 10.614300 -159.093000 -21.333400 166.105000 19.884300 -2.576700 -85.750500 19.226200 19.985600 87.737000 -0.093700 -9.953500 12.507000 0.605900 4.982500 13.858800 -12.331300 14.752600 -44.040800 -13.249800 -18.870500 69.899700 0.146500 -6.934800 -0.936200 -3.072500 10.811500 -31.646900 -6.365700 2.142700 17.202300 1.228600 -2.733800 0.584200 39.294900 -27.497500 -9.854100 11.445000 -15.391500 7.087200 7.856700 -47.500500 -20.332900 129.166200 -53.326300 -93.158500 0.000000 0.000000 -4.878300 -7.125000 0.000000 0.000000 65.225900 4.113100 -11.760300 -161.779700 28.438300 -115.346300 0.000000 0.000000 12.682700 7.125000 0.000000 0.000000 
6.105600 11.305100 10.614100 -158.755000 -21.534000 165.814000 19.770600 -2.566000 -85.764300 19.252500 19.986600 87.814100 -0.119300 -10.352900 12.667300 0.629000 5.075000 14.122600 -12.196400 15.121100 -43.692200 -13.336600 -18.900400 70.167900 0.140200 -6.911200 -0.424700 -3.508400 11.475800 -33.902000 -6.313000 2.744200 16.944800 1.054800 -2.369100 0.267600 39.306700 -26.979800 -10.565100 11.781800 -15.425700 6.200000 7.089100 -47.833600 -19.359000 128.783600 -53.474500 -92.851400 0.000000 0.000000 -4.712200 -7.125000 0.000000 0.000000 66.123000 2.494600 -11.927100 -161.894600 28.291900 -115.400900 0.000000 0.000000 13.620300 7.125000 0.000000 0.000000 
6.072100 11.304600 10.628300 -158.634000 -21.900300 165.567000 19.571100 -2.924500 -85.844200 19.307700 19.988500 87.975600 -0.125500 -10.410400 12.641700 0.645100 5.138200 14.303000 -12.362900 15.258800 -43.343300 -13.422000 -18.929300 70.431300 0.190400 -7.902400 -1.046600 -2.581600 9.984800 -28.927600 -6.252500 2.824300 16.877100 0.989800 -2.305300 0.102600 39.681600 -26.938900 -10.526600 11.976300 -15.429600 6.276600 6.208900 -47.705100 -19.022900 128.473600 -53.592900 -92.602100 0.000000 0.000000 -5.175200 -7.125000 0.000000 0.000000 66.462300 1.956000 -11.927400 -162.124200 27.997800 -115.509200 0.000000 0.000000 13.513300 7.125000 0.000000 0.000000 
6.038900 11.297500 10.643400 -158.812000 -22.325300 165.475000 19.121100 -3.396800 -85.965500 19.376900 19.990700 88.177800 -0.114800 -10.153300 12.420400 0.704600 5.365100 14.952900 -12.818400 15.274000 -43.065400 -13.489500 -18.951800 70.639200 0.257900 -8.984400 -2.619000 -0.951400 6.211500 -17.399300 -6.316100 2.730900 16.868800 0.932600 -2.347900 0.051600 39.855500 -27.086800 -9.890000 11.957300 -15.370300 6.690500 5.478000 -47.223300 -18.952900 127.984600 -53.776700 -92.208100 0.000000 0.000000 -5.444200 -7.125000 0.000000 0.000000 66.801500 1.709500 -11.678700 -162.101800 28.026700 -115.498700 0.000000 0.000000 14.655900 7.125000 0.000000 0.000000 
6.016300 11.283600 10.643500 -158.737000 -22.604500 165.367000 18.798500 -3.374400 -86.284900 19.453300 19.992800 88.401300 -0.117200 -10.196400 12.446300 0.737600 5.486600 15.301700 -12.912900 15.272500 -43.068500 -13.566100 -18.977100 70.875000 0.280700 -9.345100 -3.553900 -0.305200 3.551600 -9.818500 -6.574900 2.812800 16.875900 0.474800 -2.266700 0.015500 39.987400 -27.215900 -9.406600 11.885300 -15.378000 6.868700 5.293000 -46.945700 -18.954600 127.251100 -54.045800 -91.615300 0.000000 0.000000 -4.813300 -7.125000 0.000000 0.000000 67.604500 1.275400 -11.909700 -162.144700 27.971400 -115.518900 0.000000 0.000000 14.965700 7.125000 0.000000 0.000000 
5.996800 11.270000 10.645300 -158.496000 -22.862000 165.184000 18.642100 -3.310500 -86.615100 19.515400 19.994400 88.583100 -0.118700 -10.288200 12.570700 0.746900 5.520400 15.399100 -12.803800 15.306500 -43.068000 -13.661000 -19.008000 71.166400 0.267800 -9.131500 -3.149400 -0.341800 3.756900 -10.393700 -7.006800 3.172300 16.656400 -0.476200 -1.962300 -0.353800 40.273800 -27.249800 -9.899600 11.945200 -15.626400 6.366100 5.365900 -47.437800 -18.370900 126.643100 -54.262800 -91.122400 0.000000 0.000000 -4.587200 -7.125000 0.000000 0.000000 69.172500 -0.034200 -12.710000 -162.413700 27.624100 -115.644300 0.000000 0.000000 14.875100 7.125000 0.000000 0.000000 
5.980000 11.267900 10.650200 -158.437000 -23.101900 165.109000 18.331100 -3.327100 -86.799800 19.538200 19.994900 88.649800 -0.120700 -10.347900 12.632000 0.791600 5.679200 15.856500 -12.850100 15.360400 -43.059900 -13.770100 -19.042800 71.501300 0.244800 -8.744800 -2.726800 -0.315100 3.608400 -9.977600 -6.310200 2.892600 16.901200 0.793800 -2.240200 0.049000 40.166900 -27.244500 -9.384600 12.010800 -15.402000 6.941500 3.146700 -45.518900 -18.575000 126.036100 -54.474300 -90.629100 0.000000 0.000000 -4.531800 -7.125000 0.000000 0.000000 67.475400 1.103700 -11.889200 -162.242100 27.846100 -115.564400 0.000000 0.000000 14.724000 7.125000 0.000000 0.000000 
5.972100 11.276300 10.648100 -158.549000 -23.150100 165.064000 18.001800 -3.215900 -86.719300 19.557900 19.995300 88.707200 -0.122700 -10.345800 12.589200 0.892200 6.020500 16.844000 -12.901000 15.384300 -43.130400 -13.876600 -19.076200 71.827300 0.227900 -8.428800 -3.103400 -0.058800 1.564800 -4.304500 -6.437600 2.860800 16.661800 0.836200 -2.226700 -0.167900 40.033200 -27.252000 -9.113300 12.045500 -15.412200 6.891400 1.994900 -44.308500 -17.863500 125.328500 -54.714200 -90.052400 0.000000 0.000000 -4.591300 -7.125000 0.000000 0.000000 67.747900 0.847900 -11.404600 -162.190900 27.912100 -115.540500 0.000000 0.000000 14.969500 7.125000 0.000000 0.000000 
5.963000 11.293000 10.646800 -158.679000 -23.182900 164.982000 17.585800 -2.939400 -86.626500 19.587100 19.995900 88.792800 -0.133800 -10.488200 12.612000 0.945100 6.191600 17.341300 -12.870000 15.284700 -43.138800 -13.929800 -19.092600 71.990100 0.195900 -7.825700 -3.188300 -0.027600 1.073400 -2.950800 -6.149300 3.289700 16.780100 1.236800 -2.112200 0.026200 39.656800 -27.403500 -9.657400 11.923000 -15.589100 6.501100 1.002500 -43.724400 -17.747700 124.558000 -54.967700 -89.422400 0.000000 0.000000 -4.168100 -7.125000 0.000000 0.000000 67.726500 0.781100 -11.540700 -162.071600 28.065400 -115.484500 0.000000 0.000000 15.277200 7.125000 0.000000 0.000000 
5.948300 11.291300 10.636300 -158.782000 -23.334800 164.775000 17.304300 -2.990300 -86.478400 19.623900 19.996600 88.900300 -0.134800 -10.504500 12.619300 1.002100 6.370300 17.862700 -12.891800 15.171800 -42.964700 -13.956800 -19.100900 72.072500 0.135100 -6.503000 -2.288500 -0.646200 5.142500 -14.315500 -6.120600 3.367200 16.924800 1.336100 -2.137000 0.213900 39.996100 -27.400100 -8.613200 11.950100 -15.369300 7.167700 -0.001200 -42.655800 -17.638900 124.078200 -55.121500 -89.029200 0.000000 0.000000 -3.836600 -7.125000 0.000000 0.000000 67.857900 1.011300 -11.454000 -161.976500 28.187300 -115.439600 0.000000 0.000000 15.257200 7.125000 0.000000 0.000000 
5.935600 11.288800 10.635900 -158.495000 -23.442300 164.358000 16.980300 -2.605400 -86.480600 19.632200 19.996800 88.924700 -0.147700 -10.861200 12.981600 1.083400 6.615600 18.581300 -12.470200 15.205800 -42.714200 -13.968300 -19.104400 72.107700 0.125100 -6.314600 -3.208300 -0.644800 5.137100 -14.300000 -5.971400 3.451600 17.031200 1.472200 -2.134500 0.316000 39.998000 -27.420500 -8.040700 11.905400 -15.253600 7.476000 -1.264400 -41.497200 -17.539700 123.539200 -55.290600 -88.586500 0.000000 0.000000 -3.434600 -7.125000 0.000000 0.000000 67.944100 1.294800 -11.254500 -161.964900 28.202100 -115.434200 0.000000 0.000000 15.249700 7.125000 0.000000 0.000000 
5.918500 11.331700 10.672600 -158.205000 -23.631100 164.012000 17.681300 -3.996400 -85.703000 19.554200 19.995200 88.696500 -0.098300 -9.896900 12.323300 1.069200 6.573500 18.457900 -11.869400 15.027300 -42.390900 -13.929200 -19.092400 71.988200 0.109300 -6.088900 -4.015100 -0.833100 5.822600 -16.270700 -5.840800 3.622400 17.021600 1.510300 -2.053500 0.252000 40.137100 -27.310500 -8.287600 11.993300 -15.288100 7.279100 -2.251600 -40.669100 -17.426000 122.608800 -55.573700 -87.820400 0.000000 0.000000 -2.593400 -7.125000 0.000000 0.000000 68.324000 1.416800 -11.251600 -161.862400 28.333000 -115.385600 0.000000 0.000000 15.612500 7.125000 0.000000 0.000000 
5.911800 11.346100 10.670500 -158.427000 -23.801500 164.027000 17.130200 -3.969400 -85.588800 19.542600 19.995000 88.662500 -0.100500 -9.991500 12.434800 1.017700 6.418000 18.002000 -11.822700 14.593300 -42.438800 -13.954100 -19.100100 72.064300 0.082800 -5.766300 -4.976300 -0.767100 5.592800 -15.607300 -5.825300 3.703700 16.928900 1.686700 -2.036200 0.188100 40.030600 -27.387900 -8.093900 11.914000 -15.313000 7.276000 -3.255000 -39.615000 -17.333300 121.695200 -55.841000 -87.065600 0.000000 0.000000 -1.911300 -7.125000 0.000000 0.000000 68.669000 1.579200 -11.147800 -161.787500 28.428500 -115.350000 0.000000 0.000000 15.377700 7.125000 0.000000 0.000000 
5.905900 11.297100 10.635000 -158.638000 -24.057000 164.153000 15.801700 -2.737200 -86.532000 19.652800 19.997100 88.984800 -0.147300 -11.081900 13.368400 0.892200 6.020500 16.843800 -12.054100 13.978800 -42.829700 -14.065400 -19.133800 72.404100 0.057800 -5.635900 -5.983900 -0.527700 4.655300 -12.928000 -5.767700 3.481200 16.861000 2.048200 -2.158900 0.201500 39.670000 -27.417000 -7.801700 11.793400 -15.256500 7.324800 -4.825100 -38.163000 -17.342300 120.891200 -56.067700 -86.399400 0.000000 0.000000 -1.589800 -7.125000 0.000000 0.000000 68.523700 1.754500 -10.377200 -161.654700 28.597100 -115.286700 0.000000 0.000000 16.069300 7.125000 0.000000 0.000000 
5.878600 11.275500 10.647700 -158.516000 -24.578500 163.998000 15.244000 -3.256400 -86.872400 19.686400 19.997600 89.083100 -0.116000 -10.747600 13.383900 0.870900 5.950100 16.639600 -11.951500 13.193700 -42.774700 -14.085600 -19.139800 72.465800 0.059900 -6.007200 -6.613600 -0.420500 4.162000 -11.533000 -5.865100 3.189500 16.593600 1.903900 -2.188700 -0.162200 39.664900 -27.180100 -8.562300 11.988500 -15.357000 6.748200 -6.399200 -36.950900 -16.665700 120.139400 -56.272700 -85.774900 0.000000 0.000000 -1.545900 -7.125000 0.000000 0.000000 68.752700 1.308600 -10.164000 -161.654700 28.597100 -115.286700 0.000000 0.000000 16.034700 7.125000 0.000000 0.000000 
5.862000 11.239700 10.634000 -158.102000 -24.885700 163.546000 14.894300 -3.312300 -87.161700 19.780900 19.998800 89.359400 -0.081300 -10.388500 13.434000 1.081700 6.610500 18.566400 -11.345100 12.542000 -42.687700 -14.129200 -19.152800 72.598800 0.088300 -6.722000 -6.905200 -0.395200 4.036300 -11.178900 -5.810300 2.896600 16.465400 1.927200 -2.273800 -0.382900 39.353700 -27.178600 -8.945100 11.939200 -15.436200 6.441900 -8.028800 -35.162400 -16.371700 119.581000 -56.420600 -85.310000 0.000000 0.000000 -1.129500 -7.125000 0.000000 0.000000 68.736600 1.615300 -9.723700 -161.650800 28.602000 -115.284800 0.000000 0.000000 15.236500 7.125000 0.000000 0.000000 
